<svg width="800" height="500" xmlns="http://www.w3.org/2000/svg">
  <!-- Background -->
  <rect width="800" height="500" fill="#bfdbfe" rx="10" ry="10"/>
  
  <!-- Header -->
  <rect x="40" y="40" width="720" height="60" fill="#1e3a8a" rx="5" ry="5"/>
  <circle cx="70" cy="70" r="15" fill="#60a5fa"/>
  <rect x="100" y="62" width="120" height="16" fill="white" rx="3" ry="3"/>
  <rect x="550" y="62" width="80" height="16" fill="#60a5fa" rx="3" ry="3"/>
  <rect x="650" y="62" width="80" height="16" fill="#60a5fa" rx="3" ry="3"/>
  
  <!-- Sidebar -->
  <rect x="40" y="120" width="180" height="340" fill="#1e3a8a" rx="5" ry="5"/>
  <rect x="60" y="150" width="140" height="16" fill="white" rx="3" ry="3"/>
  <rect x="60" y="190" width="140" height="16" fill="#60a5fa" rx="3" ry="3"/>
  <rect x="60" y="230" width="140" height="16" fill="#60a5fa" rx="3" ry="3"/>
  <rect x="60" y="270" width="140" height="16" fill="#60a5fa" rx="3" ry="3"/>
  <rect x="60" y="310" width="140" height="16" fill="#60a5fa" rx="3" ry="3"/>
  <rect x="60" y="350" width="140" height="16" fill="#60a5fa" rx="3" ry="3"/>
  
  <!-- Main Content -->
  <rect x="240" y="120" width="520" height="150" fill="white" rx="5" ry="5"/>
  <rect x="260" y="140" width="200" height="24" fill="#1e3a8a" rx="3" ry="3"/>
  <rect x="260" y="180" width="480" height="16" fill="#dbeafe" rx="3" ry="3"/>
  <rect x="260" y="210" width="480" height="16" fill="#dbeafe" rx="3" ry="3"/>
  <rect x="260" y="240" width="320" height="16" fill="#dbeafe" rx="3" ry="3"/>
  
  <!-- Charts -->
  <rect x="240" y="290" width="250" height="170" fill="white" rx="5" ry="5"/>
  <rect x="260" y="310" width="120" height="16" fill="#1e3a8a" rx="3" ry="3"/>
  <circle cx="365" cy="390" r="60" fill="none" stroke="#60a5fa" stroke-width="30"/>
  <circle cx="365" cy="390" r="60" fill="none" stroke="#1e3a8a" stroke-width="30" stroke-dasharray="188.5 377" stroke-dashoffset="0"/>
  
  <rect x="510" y="290" width="250" height="170" fill="white" rx="5" ry="5"/>
  <rect x="530" y="310" width="120" height="16" fill="#1e3a8a" rx="3" ry="3"/>
  <!-- Bar Chart -->
  <rect x="550" y="380" width="30" height="60" fill="#1e3a8a" rx="3" ry="3"/>
  <rect x="590" y="350" width="30" height="90" fill="#60a5fa" rx="3" ry="3"/>
  <rect x="630" y="370" width="30" height="70" fill="#1e3a8a" rx="3" ry="3"/>
  <rect x="670" y="330" width="30" height="110" fill="#60a5fa" rx="3" ry="3"/>
  
  <!-- Text overlay -->
  <text x="400" y="250" font-family="Arial" font-size="24" font-weight="bold" text-anchor="middle" fill="#1e3a8a">Ryplix Dashboard UI</text>
</svg>